<?xml version="1.0" encoding="UTF-8"?>
<!--Generator: Apple Native CoreSVG 232.5-->
<!DOCTYPE svg
PUBLIC "-//W3C//DTD SVG 1.1//EN"
       "http://www.w3.org/Graphics/SVG/1.1/DTD/svg11.dtd">
<svg version="1.1" xmlns="http://www.w3.org/2000/svg" xmlns:xlink="http://www.w3.org/1999/xlink" width="58.418" height="55.5762">
 <g>
  <rect height="55.5762" opacity="0" width="58.418" x="0" y="0"/>
  <path d="M0 19.4824C0 31.9629 10.459 44.2383 26.9824 54.7852C27.5977 55.166 28.4766 55.5762 29.0918 55.5762C29.707 55.5762 30.5859 55.166 31.2305 54.7852C47.7246 44.2383 58.1836 31.9629 58.1836 19.4824C58.1836 9.11133 51.0645 1.78711 41.5723 1.78711C36.1523 1.78711 31.7578 4.36523 29.0918 8.32031C26.4844 4.39453 22.0312 1.78711 16.6113 1.78711C7.11914 1.78711 0 9.11133 0 19.4824ZM4.7168 19.4824C4.7168 11.6895 9.75586 6.50391 16.5527 6.50391C22.0605 6.50391 25.2246 9.93164 27.0996 12.8613C27.8906 14.0332 28.3887 14.3555 29.0918 14.3555C29.7949 14.3555 30.2344 14.0039 31.084 12.8613C33.1055 9.99023 36.1523 6.50391 41.6309 6.50391C48.4277 6.50391 53.4668 11.6895 53.4668 19.4824C53.4668 30.3809 41.9531 42.1289 29.707 50.2734C29.4141 50.4785 29.209 50.625 29.0918 50.625C28.9746 50.625 28.7695 50.4785 28.5059 50.2734C16.2305 42.1289 4.7168 30.3809 4.7168 19.4824Z" fill="#677389"/>
 </g>
</svg>
