<svg width="28" height="30" viewBox="0 0 28 30" fill="none" xmlns="http://www.w3.org/2000/svg">
<g clip-path="url(#clip0_2311_7709)">
<path d="M7.28125 24.1289H20.4297C22.5156 24.1289 23.7109 22.6992 23.7109 20.6953V12.293C23.7109 9.17578 23.3125 6.12891 22.832 4.19531C22.3516 2.20312 21.0039 0.714845 18.9297 0.492189C18.1797 0.410157 16.2227 0.257812 13.8555 0.257812C11.4883 0.257812 9.51953 0.410157 8.78125 0.492189C6.69531 0.714845 5.35938 2.20312 4.87891 4.19531C4.39844 6.12891 4 9.17578 4 12.293V20.6953C4 22.6992 5.19531 24.1289 7.28125 24.1289ZM10.8555 3.90234C10.4219 3.90234 10.1406 3.60938 10.1406 3.17578C10.1406 2.74219 10.4219 2.47266 10.8555 2.47266H16.8438C17.2891 2.47266 17.5703 2.74219 17.5703 3.17578C17.5703 3.60938 17.2891 3.90234 16.8438 3.90234H10.8555ZM13.8555 16.3945C11.1367 16.3711 8.64062 16.2539 7.375 16.1016C6.67188 16.0078 6.40234 15.5508 6.40234 14.8945V12.1992C6.40234 9.83203 6.66016 7.92188 6.84766 7.08984C6.96484 6.57422 7.28125 6.19922 7.78516 6.14062C9.10938 5.97656 10.7383 5.89453 13.8555 5.88281C16.9609 5.87109 18.5898 5.97656 19.8789 6.14062C20.4062 6.19922 20.7344 6.57422 20.8516 7.08984C21.0391 7.92188 21.2969 9.83203 21.2969 12.1992V14.8945C21.2969 15.5625 21.0273 16.0195 20.3242 16.1016C18.4375 16.3008 15.9414 16.3945 13.8555 16.3945ZM8.40625 21.668C7.48047 21.668 6.8125 21 6.8125 20.0625C6.8125 19.1367 7.48047 18.457 8.40625 18.457C9.34375 18.457 10.0234 19.1367 10.0234 20.0625C10.0234 21 9.32031 21.668 8.40625 21.668ZM19.2812 21.6797C18.3555 21.6797 17.6523 20.9883 17.6523 20.0625C17.6523 19.1484 18.3555 18.4453 19.2812 18.4453C20.1953 18.4453 20.8984 19.1484 20.8984 20.0625C20.8984 20.9883 20.1836 21.6797 19.2812 21.6797ZM5.78125 29.2852H6.4375C6.76562 29.2852 6.94141 29.168 7.11719 28.8867L10.4453 23.5195H8.20703L5.25391 28.2656C4.94922 28.7578 5.23047 29.2852 5.78125 29.2852ZM6.8125 27.8086H20.9336V26.0508H6.8125V27.8086ZM21.3203 29.2852H21.9766C22.5156 29.2852 22.7617 28.7461 22.4688 28.2656L19.5391 23.5195H17.3008L20.6289 28.8867C20.8047 29.168 20.9922 29.2852 21.3203 29.2852Z"/>
</g>
<defs>
<clipPath id="clip0_2311_7709">
<rect width="19.7109" height="29.2852" fill="white" transform="translate(4)"/>
</clipPath>
</defs>
</svg>
