<svg width="30" height="28" viewBox="0 0 30 28" fill="none" xmlns="http://www.w3.org/2000/svg">
<g clip-path="url(#clip0_2311_13708)">
<path d="M0.9375 24.7578C1.20703 24.7578 1.47656 24.6758 1.69922 24.4766C3.16406 23.211 5.13281 22.5547 7.07812 22.5547C8.83594 22.5547 10.5234 23.0938 11.9766 24.3008C11.0625 22.6485 11.3555 20.6914 12.7266 19.2969V6.60547C12.7266 6.30079 12.7031 6.23047 12.4805 5.91407C11.332 4.26172 9.08203 3.26562 6.62109 3.26562C4.03125 3.26562 1.34766 4.46094 0.140625 6.53516C0.0117188 6.76954 0 6.92188 0 7.35547V23.8907C0 24.4297 0.351562 24.7578 0.9375 24.7578ZM14.2617 18.043C15.7148 17 17.4727 15.9453 18.5742 14.8321C19.6758 13.7539 18.2695 11.0703 20.8828 8.57422C22.5117 7.02735 24.9492 6.64063 26.9883 7.47266C26.9883 6.92188 26.9883 6.75782 26.8594 6.53516C25.6406 4.46094 22.9688 3.26562 20.3789 3.26562C17.9062 3.26562 15.668 4.26172 14.5195 5.91407C14.2852 6.23047 14.2617 6.30079 14.2617 6.60547V18.043ZM20.8242 22.6133C22.4648 22.7891 24.0703 23.4219 25.3008 24.4766C25.5234 24.6758 25.7812 24.7578 26.0625 24.7578C26.6484 24.7578 26.9883 24.4297 26.9883 23.8907V18.3125C25.4297 18.9571 24.293 18.3946 23.4844 19.2032C22.7109 19.9883 21.6914 21.3711 20.8242 22.6133Z" />
<path d="M13.8748 24.2069C15.0115 25.3436 16.7107 25.3905 17.824 24.0545C18.6443 23.0701 20.7068 19.7186 22.4764 17.9491C23.4607 16.9647 24.785 16.8475 25.5232 16.8475C28.2889 16.8475 29.367 14.6209 29.0271 13.0858L25.5232 14.0116L25.1248 12.5819C24.9842 12.0545 25.2068 11.6092 25.8045 11.4452L28.3943 10.7537C28.3006 10.5194 28.0779 10.1795 27.7967 9.88655C26.2029 8.26937 23.5662 8.23421 21.9959 9.73421C19.7107 11.9022 21.4568 14.2225 19.9451 15.7342C18.0467 17.6209 15.4217 19.0037 14.0271 20.2459C12.7146 21.4178 12.7264 23.0584 13.8748 24.2069ZM15.8201 23.1053C15.3514 23.1053 14.9646 22.7186 14.9646 22.2498C14.9646 21.7811 15.3514 21.4061 15.8201 21.4061C16.3006 21.4061 16.6756 21.7811 16.6756 22.2498C16.6756 22.7186 16.3006 23.1053 15.8201 23.1053Z"/>
</g>
<defs>
<clipPath id="clip0_2311_13708">
<rect width="29.088" height="22.0585" fill="white" transform="translate(0 3)"/>
</clipPath>
</defs>
</svg>
