<?xml version="1.0" encoding="UTF-8"?>
<!--Generator: Apple Native CoreSVG 232.5-->
<!DOCTYPE svg
PUBLIC "-//W3C//DTD SVG 1.1//EN"
       "http://www.w3.org/Graphics/SVG/1.1/DTD/svg11.dtd">
<svg version="1.1" xmlns="http://www.w3.org/2000/svg" xmlns:xlink="http://www.w3.org/1999/xlink" width="60" height="59.7949">
 <g>
  <rect height="59.7949" opacity="0" width="60" x="0" y="0"/>
  <path d="M59.7656 29.8828C59.7656 46.2012 46.2305 59.7656 29.8828 59.7656C13.5645 59.7656 0 46.2012 0 29.8828C0 13.5352 13.5352 0 29.8535 0C46.2012 0 59.7656 13.5352 59.7656 29.8828ZM39.6094 29.8535C39.6094 32.2852 41.5723 34.248 44.0039 34.248C46.377 34.248 48.3691 32.2852 48.3691 29.8535C48.3691 27.4219 46.377 25.459 44.0039 25.459C41.5723 25.459 39.6094 27.4219 39.6094 29.8535ZM25.4883 29.8535C25.4883 32.2852 27.4512 34.248 29.8828 34.248C32.3145 34.248 34.2773 32.2852 34.2773 29.8535C34.2773 27.4219 32.3145 25.459 29.8828 25.459C27.4512 25.459 25.4883 27.4219 25.4883 29.8535ZM11.3965 29.8535C11.3965 32.2852 13.3887 34.248 15.791 34.248C18.1934 34.248 20.1562 32.2852 20.1562 29.8535C20.1562 27.4219 18.1641 25.459 15.791 25.459C13.3887 25.459 11.3965 27.4219 11.3965 29.8535Z" fill="#000000" fill-opacity="0.85"/>
 </g>
</svg>
