<?xml version="1.0" encoding="UTF-8"?>
<!--Generator: Apple Native CoreSVG 232.5-->
<!DOCTYPE svg
PUBLIC "-//W3C//DTD SVG 1.1//EN"
       "http://www.w3.org/Graphics/SVG/1.1/DTD/svg11.dtd">
<svg version="1.1" xmlns="http://www.w3.org/2000/svg" xmlns:xlink="http://www.w3.org/1999/xlink" width="60" height="59.7949">
 <g>
  <rect height="59.7949" opacity="0" width="60" x="0" y="0"/>
  <path d="M29.8828 59.7656C46.2305 59.7656 59.7656 46.2012 59.7656 29.8828C59.7656 13.5352 46.2012 0 29.8535 0C13.5352 0 0 13.5352 0 29.8828C0 46.2012 13.5645 59.7656 29.8828 59.7656ZM29.8828 54.7852C16.0547 54.7852 5.00977 43.7109 5.00977 29.8828C5.00977 16.0547 16.0254 4.98047 29.8535 4.98047C43.6816 4.98047 54.7852 16.0547 54.7852 29.8828C54.7852 43.7109 43.7109 54.7852 29.8828 54.7852Z" fill="#000000" fill-opacity="0.85"/>
  <path d="M43.5352 34.1016C45.8496 34.1016 47.7832 32.1973 47.7832 29.8535C47.7832 27.5098 45.8496 25.6055 43.5352 25.6055C41.1914 25.6055 39.2871 27.5098 39.2871 29.8535C39.2871 32.1973 41.1914 34.1016 43.5352 34.1016Z" fill="#000000" fill-opacity="0.85"/>
  <path d="M29.8535 34.1016C32.1973 34.1016 34.1016 32.1973 34.1016 29.8535C34.1016 27.5098 32.1973 25.6055 29.8535 25.6055C27.5098 25.6055 25.6055 27.5098 25.6055 29.8535C25.6055 32.1973 27.5098 34.1016 29.8535 34.1016Z" fill="#000000" fill-opacity="0.85"/>
  <path d="M16.2012 34.1016C18.5156 34.1016 20.4199 32.1973 20.4199 29.8535C20.4199 27.5098 18.4863 25.6055 16.2012 25.6055C13.8574 25.6055 11.9531 27.5098 11.9531 29.8535C11.9531 32.1973 13.8574 34.1016 16.2012 34.1016Z" fill="#000000" fill-opacity="0.85"/>
 </g>
</svg>
