<?xml version="1.0" encoding="UTF-8"?>
<!--Generator: Apple Native CoreSVG 232.5-->
<!DOCTYPE svg
PUBLIC "-//W3C//DTD SVG 1.1//EN"
       "http://www.w3.org/Graphics/SVG/1.1/DTD/svg11.dtd">
<svg version="1.1" xmlns="http://www.w3.org/2000/svg" xmlns:xlink="http://www.w3.org/1999/xlink" width="54.9023" height="11.1621">
 <g>
  <rect height="11.1621" opacity="0" width="54.9023" x="0" y="0"/>
  <path d="M49.1016 11.1035C52.1777 11.1035 54.668 8.64258 54.668 5.56641C54.668 2.49023 52.1777 0 49.1016 0C46.0254 0 43.5352 2.49023 43.5352 5.56641C43.5352 8.64258 46.0254 11.1035 49.1016 11.1035Z" fill="#000000" fill-opacity="0.85"/>
  <path d="M27.334 11.1035C30.4102 11.1035 32.8711 8.64258 32.8711 5.56641C32.8711 2.49023 30.4102 0 27.334 0C24.2578 0 21.7676 2.49023 21.7676 5.56641C21.7676 8.64258 24.2578 11.1035 27.334 11.1035Z" fill="#000000" fill-opacity="0.85"/>
  <path d="M5.56641 11.1035C8.64258 11.1035 11.1035 8.64258 11.1035 5.56641C11.1035 2.49023 8.64258 0 5.56641 0C2.49023 0 0 2.49023 0 5.56641C0 8.64258 2.49023 11.1035 5.56641 11.1035Z" fill="#000000" fill-opacity="0.85"/>
 </g>
</svg>
