<?xml version="1.0" encoding="UTF-8" standalone="no"?>
<!DOCTYPE svg PUBLIC "-//W3C//DTD SVG 1.1//EN" "http://www.w3.org/Graphics/SVG/1.1/DTD/svg11.dtd">
<svg width="100%" height="100%" viewBox="0 0 36 36" version="1.1" xmlns="http://www.w3.org/2000/svg" xmlns:xlink="http://www.w3.org/1999/xlink" xml:space="preserve" xmlns:serif="http://www.serif.com/" style="fill-rule:evenodd;clip-rule:evenodd;stroke-linejoin:round;stroke-miterlimit:2;">
    <g transform="matrix(0.0114828,0,0,0.0120594,-4.96564,-6.11874)">
        <path d="M2481.38,2755.23L2677.54,3072.5C2698.5,3106.47 2681.88,3144.05 2642.85,3144.05L2594.43,3144.05C2569.86,3144.05 2556.85,3136.83 2544.56,3116.6L2491.19,3030.59L1511.7,3030.59L1458.33,3116.6C1445.32,3136.83 1432.31,3144.05 1408.46,3144.05L1360.04,3144.05C1321.01,3144.05 1301.5,3107.2 1323.9,3072.5L1521.33,2755.23L1490.13,2755.23C1308.73,2755.23 1216.22,2633.82 1216.22,2473.38L1216.22,1822.21C1216.22,1559.87 1252.36,1305.48 1290.66,1154.43C1328.24,1003.38 1432.31,893.53 1589.14,876.185C1657.8,868.235 1813.9,855.949 2000.36,855.949C2186.1,855.949 2342.2,868.235 2410.87,876.185C2567.69,893.53 2671.76,1003.38 2709.35,1154.43C2747.65,1305.48 2783.78,1559.87 2783.78,1822.21L2783.78,2473.38C2783.78,2633.82 2691.27,2755.23 2510.6,2755.23L2481.38,2755.23ZM1682.58,2755.23L1591.08,2902.67L2411.81,2902.67L2320.32,2755.23L1682.58,2755.23ZM2433.99,2556.49C2503.37,2556.49 2557.57,2503.01 2557.57,2432.18C2557.57,2362.08 2504.09,2308.6 2433.99,2308.6C2363.16,2308.6 2309.68,2362.08 2309.68,2432.18C2309.68,2503.01 2363.16,2556.49 2433.99,2556.49ZM1566.01,2555.76C1636.12,2555.76 1689.6,2503.73 1689.6,2432.18C1689.6,2361.36 1637.56,2309.33 1566.01,2309.33C1495.19,2309.33 1443.15,2361.36 1443.15,2432.18C1443.15,2503.73 1495.19,2555.76 1566.01,2555.76ZM2000.36,2149.6C2170.2,2149.6 2358.83,2142.38 2501.92,2127.2C2560.47,2121.42 2585.76,2083.84 2585.76,2028.19L2585.76,1808.49C2585.76,1627.81 2566.25,1476.76 2549.63,1398.7C2539.51,1354.62 2511.32,1323.54 2465.79,1317.76C2363.16,1306.2 2231.63,1297.53 2000.36,1298.25C1767.65,1298.97 1636.12,1306.2 1529.15,1318.48C1486.51,1323.54 1459.78,1354.62 1450.38,1398.7C1433.03,1476.76 1413.52,1627.81 1413.52,1808.49L1413.52,2028.19C1413.52,2083.11 1438.82,2120.69 1497.36,2127.2C1602.15,2139.48 1790.05,2148.16 2000.36,2149.6ZM1758.98,1145.03L2241.75,1145.03C2273.55,1145.03 2293.78,1124.07 2293.78,1092.28C2293.78,1061.2 2273.55,1040.24 2241.75,1040.24L1758.98,1040.24C1726.45,1040.24 1706.22,1061.2 1706.22,1092.28C1706.22,1124.07 1726.45,1145.03 1758.98,1145.03Z"/>
    </g>
    <style>
    @media (prefers-color-scheme:dark){:root{filter:invert(100%)}}
  </style>
</svg>
