<?xml version="1.0" encoding="UTF-8" standalone="no"?>
<!DOCTYPE svg PUBLIC "-//W3C//DTD SVG 1.1//EN" "http://www.w3.org/Graphics/SVG/1.1/DTD/svg11.dtd">
<svg width="100%" height="100%" viewBox="0 0 200 200" version="1.1" xmlns="http://www.w3.org/2000/svg" xmlns:xlink="http://www.w3.org/1999/xlink" xml:space="preserve" xmlns:serif="http://www.serif.com/" style="fill-rule:evenodd;clip-rule:evenodd;stroke-linejoin:round;stroke-miterlimit:2;">
    <g id="KVV" transform="matrix(0.142886,0,0,0.142886,27.8503,63.9794)">
        <path id="path32480" d="M58.634,312.711L15.045,503.285L66.214,503.285L86.454,413.322L131.852,503.285L191.881,503.285L136.363,405.214L228.744,312.711L163.106,312.711L91.758,390.115L109.803,312.711L58.634,312.711ZM234.109,312.711L255.182,503.285L318.016,503.285L426.959,312.711L372.254,312.711L295.581,456.119L284.608,312.711L234.109,312.711ZM436.672,312.711L457.461,503.285L521.27,503.285L629.766,312.711L575.081,312.711L498.368,456.119L487.273,312.711L436.672,312.711Z" style="fill-rule:nonzero;"/>
        <g id="path3592" transform="matrix(0.0615117,0,0,0.0615117,-15.0449,-14.6887)">
            <path d="M8951.87,253.465C7274.27,1868.95 4808.85,3107.12 1367.43,3148.75L1099.7,4323.32L16124.3,4323.32L16417.9,3148.24L6527.02,3148.24C8535.98,2467.69 9683.01,1346.32 10943.4,253.465L8951.87,253.465ZM15987.1,4779.03C12133.7,4787.29 10303.8,6604.46 9190.14,8213.34L10867.2,8213.34C12616.8,5994.27 14789.7,5905.27 15711.8,5895.69L15987.1,4779.03Z" style="fill:rgb(207,17,63);fill-rule:nonzero;"/>
        </g>
    </g>
</svg>
