<?xml version="1.0" encoding="UTF-8" standalone="no"?>
<!DOCTYPE svg PUBLIC "-//W3C//DTD SVG 1.1//EN" "http://www.w3.org/Graphics/SVG/1.1/DTD/svg11.dtd">
<svg width="100%" height="100%" viewBox="0 0 200 200" version="1.1" xmlns="http://www.w3.org/2000/svg" xmlns:xlink="http://www.w3.org/1999/xlink" xml:space="preserve" xmlns:serif="http://www.serif.com/" style="fill-rule:evenodd;clip-rule:evenodd;stroke-miterlimit:3.864;">
    <g id="VGN" transform="matrix(2.20154,0,0,2.20154,-876.645,-1614.24)">
        <path id="path8069" d="M432.21,782.077L432,777.162L429.56,777.162L430.36,785.328L432.96,785.328L437.02,777.162L434.57,777.162L432.21,782.077Z" style="fill:rgb(34,31,31);stroke:rgb(34,31,31);stroke-width:0.17px;"/>
        <path id="path8071" d="M440.66,782.422L441.7,782.457C440.86,783.646 439.96,783.656 439.81,783.665C439.46,783.684 438.09,783.378 438.49,781.236C438.78,779.706 439.96,778.896 440.8,778.942C441.51,778.98 442.11,779.576 442.04,779.898L444.34,779.898C444.49,778.762 443.84,777.259 441.31,776.944C438.56,776.601 436.38,778.865 436.21,781.304C435.99,784.252 437.24,785.618 439.23,785.618C440.73,785.618 441.35,785.025 441.89,784.52L441.75,785.4L443.38,785.4L444.32,780.96L440.82,780.96L440.66,782.422Z" style="fill:rgb(34,31,31);stroke:rgb(34,31,31);stroke-width:0.17px;"/>
        <path id="path8073" d="M450.15,782.154L448.52,777.162L446.25,777.162L444.5,785.4L446.72,785.4L447.76,780.72L449.49,785.4L451.67,785.4L453.42,777.162L451.21,777.162L450.15,782.154Z" style="fill:rgb(34,31,31);stroke:rgb(34,31,31);stroke-width:0.17px;"/>
        <path id="path8137" d="M442.19,767.575C441.83,767.546 441.46,767.531 441.1,767.531C433.65,767.531 427.62,773.565 427.62,781.009C427.62,781.391 427.63,781.769 427.66,782.142L427.62,782.143L427.62,797.184L424.1,800.665L420.33,796.901L420.37,782.144C420.35,781.729 420.33,781.31 420.33,780.888C420.33,772.427 425.4,765.15 432.67,761.93L432.64,761.945L442.19,767.575" style="fill:rgb(0,166,118);"/>
        <path id="path8139" d="M429.07,787.517C429.22,787.844 429.39,788.168 429.58,788.487C433.3,794.934 441.55,796.802 447.99,793.08C448.32,792.889 448.64,792.686 448.95,792.473L448.97,792.513L461.62,785.126L466.91,786.435L465.53,791.577L452.6,798.789C452.25,799.019 451.89,799.239 451.53,799.45C444.2,803.681 435.37,802.928 428.94,798.243L428.97,798.266L429.07,787.517" style="fill:rgb(0,166,118);"/>
        <path id="path8141" d="M452.7,788.881C452.9,788.582 453.1,788.273 453.28,787.954C457.01,781.507 454.8,773.264 448.35,769.542C448.02,769.351 447.69,769.176 447.35,769.016L447.37,768.975L434.49,761.25L433.23,756.46L438.37,755.082L450.99,762.697C451.36,762.884 451.73,763.082 452.1,763.293C459.43,767.524 463.19,775.553 462.35,783.457L462.35,783.42L452.7,788.881" style="fill:rgb(0,166,118);"/>
    </g>
</svg>
