<?xml version="1.0" encoding="UTF-8" standalone="no"?>
<!DOCTYPE svg PUBLIC "-//W3C//DTD SVG 1.1//EN" "http://www.w3.org/Graphics/SVG/1.1/DTD/svg11.dtd">
<svg width="100%" height="100%" viewBox="0 0 200 200" version="1.1" xmlns="http://www.w3.org/2000/svg" xmlns:xlink="http://www.w3.org/1999/xlink" xml:space="preserve" xmlns:serif="http://www.serif.com/" style="fill-rule:evenodd;clip-rule:evenodd;">
    <g id="VBN" transform="matrix(0.93708,0,0,0.93708,57.6325,43.525)">
        <path id="path2744" d="M15.41,115.621L21.809,115.621L31.883,88.282L26.09,88.282L18.932,109.828L18.856,109.828L11.738,88.282L5.339,88.282L15.41,115.621" style="fill:rgb(27,28,32);fill-rule:nonzero;"/>
        <path id="path2746" d="M40.886,111.079L40.886,103.808L45.467,103.808C48.231,103.808 50.125,104.301 50.125,107.443C50.125,110.586 48.231,111.079 45.467,111.079L40.886,111.079ZM40.886,99.264L40.886,92.828L45.467,92.828C47.928,92.828 49.292,93.848 49.292,96.045C49.292,98.24 47.928,99.264 45.467,99.264L40.886,99.264ZM45.354,115.621C49.556,115.926 56.373,113.956 56.373,108.54C56.373,104.527 53.797,102.141 50.351,101.422L50.351,101.347C53.078,100.436 55.161,98.355 55.161,95.365C55.161,90.025 50.162,87.979 45.278,88.282L35.017,88.282L35.017,115.621L45.354,115.621" style="fill:rgb(27,28,32);fill-rule:nonzero;"/>
        <path id="path2748" d="M85.085,115.621L85.085,88.282L79.595,88.282L79.595,109.714L79.519,109.791L69.108,88.282L60.399,88.282L60.399,115.621L65.889,115.621L65.889,92.978L65.963,92.902L76.755,115.621L85.085,115.621" style="fill:rgb(27,28,32);fill-rule:nonzero;"/>
        <path id="path2750" d="M23.052,56.869L40.356,39.564L50.214,49.422L32.918,66.718M67.778,31.771C65.455,27.643 62.022,24.223 57.884,21.917" style="fill:none;fill-rule:nonzero;stroke:rgb(230,0,5);stroke-width:1.05px;"/>
        <path id="path2764" d="M45.417,18.69C31.255,18.69 19.776,30.169 19.776,44.331C19.776,48.886 20.968,53.162 23.052,56.869L40.356,39.564L50.214,49.422L32.918,66.718C36.616,68.789 40.877,69.972 45.417,69.972C59.579,69.972 71.058,58.493 71.058,44.331C71.058,30.169 59.579,18.69 45.417,18.69" style="fill:rgb(231,51,0);fill-rule:nonzero;"/>
        <path id="path2766" d="M84.752,4.883L5.854,4.883L5.854,83.781L84.752,83.781L84.752,4.883ZM80.151,79.18L19.002,79.18L19.002,69.974L10.457,69.974L10.457,9.486L70.311,9.486L57.833,21.963C61.957,24.276 65.372,27.695 67.682,31.821L80.151,19.352L80.151,79.18" style="fill:rgb(27,28,32);fill-rule:nonzero;"/>
        <path id="path2768" d="M8.057,71.864L40.356,39.564L50.214,49.422L17.915,81.722L8.057,71.864" style="fill:rgb(27,28,32);fill-rule:nonzero;"/>
    </g>
</svg>
