<?xml version="1.0" encoding="UTF-8" standalone="no"?>
<!DOCTYPE svg PUBLIC "-//W3C//DTD SVG 1.1//EN" "http://www.w3.org/Graphics/SVG/1.1/DTD/svg11.dtd">
<svg width="100%" height="100%" viewBox="0 0 200 200" version="1.1" xmlns="http://www.w3.org/2000/svg" xmlns:xlink="http://www.w3.org/1999/xlink" xml:space="preserve" xmlns:serif="http://www.serif.com/" style="fill-rule:evenodd;clip-rule:evenodd;stroke-linejoin:round;stroke-miterlimit:2;">
    <g id="VVO" transform="matrix(0.170054,-2.34034e-33,-2.34034e-33,-0.170054,49.3919,165.509)">
        <path id="blau" d="M144.416,595.753L144.416,494.162L515.378,494.162L515.378,595.753L144.416,595.753ZM145.431,435.561L145.431,333.97L514.967,333.97L514.967,435.561L145.431,435.561ZM144.319,275.756L144.319,174.165L515.378,174.165L515.378,275.756L144.319,275.756Z" style="fill:rgb(15,131,208);fill-rule:nonzero;"/>
        <path id="gruen" d="M148.452,595.898C71.489,595.898 -2.309,555.674 -39.627,494.307L330.731,494.307C293.405,555.674 225.42,595.898 148.452,595.898ZM-66.958,435.561C-70.445,422.562 -74.788,398.761 -74.788,384.863C-74.788,370.709 -70.572,347.183 -66.958,333.97L358.98,333.97C365.176,351.336 367.317,370.709 367.317,384.863C367.317,398.761 365.411,423.035 358.303,435.561L-66.958,435.561ZM-39.627,275.756C-2.203,214.793 71.842,174.165 148.452,174.165C225.06,174.165 294.733,214.793 332.156,275.756L-39.627,275.756Z" style="fill:rgb(14,162,85);fill-rule:nonzero;"/>
        <path id="VVO1" serif:id="VVO" d="M555.807,596.285L613.465,482.635L669.988,596.285L648.891,596.285L613.658,530.749L577.048,596.285L555.807,596.285ZM555.758,434.426L613.417,320.752L669.939,434.426L648.843,434.426L613.634,368.865L577.024,434.426L555.758,434.426ZM612.933,277.109C584.295,277.109 561.026,254.675 561.026,226.99C561.026,197.566 583.277,175.567 612.933,175.567C641.87,175.567 664.695,197.856 664.695,226.41C664.695,254.816 642.019,277.109 612.933,277.109ZM612.933,259.783C630.822,259.783 645.218,244.765 645.218,226.41C645.218,207.907 630.673,192.893 612.933,192.893C595.053,192.893 580.503,207.907 580.503,226.41C580.503,244.765 595.053,259.783 612.933,259.783Z" style="fill:rgb(35,31,32);fill-rule:nonzero;"/>
        <g id="grau" transform="matrix(0.966613,0,0,0.966613,9.93596,12.8615)">
            <g id="g37" transform="matrix(0,-0.12,0.12,0,-111.809,683.096)">
                <clipPath id="_clip1">
                    <path d="M1541.82,504.543C1012.77,826.266 665.988,1462.45 665.988,2125.96C665.988,2789.52 1012.77,3375.58 1541.82,3697.37L1541.82,504.543"/>
                </clipPath>
                <g clip-path="url(#_clip1)">
                    <rect id="path43" x="665.93" y="2089.98" width="888.512" height="2644.81" style="fill:rgb(33,51,51);fill-rule:nonzero;"/>
                </g>
            </g>
            <g id="g61" transform="matrix(0,-0.12,0.12,0,-111.809,683.096)">
                <clipPath id="_clip2">
                    <path d="M2485.46,201.422C2365.64,201.422 2160.32,238.801 2048.25,268.863L2048.25,3935C2156.24,3996.28 2365.64,4012.75 2485.46,4012.75C2607.48,4012.75 2774.43,3994.33 2924.14,3940.91L2924.14,268.863C2810.23,237.703 2607.48,201.422 2485.46,201.422"/>
                </clipPath>
                <g clip-path="url(#_clip2)">
                    <rect id="path67" x="2049.77" y="2099.8" width="875.891" height="2632.73" style="fill:rgb(33,51,51);fill-rule:nonzero;"/>
                </g>
            </g>
            <g id="g81" transform="matrix(0,-0.12,0.12,0,-111.809,683.096)">
                <clipPath id="_clip3">
                    <path d="M3425.93,3709.62C3951.5,3386.99 4301.82,2786.41 4301.82,2125.96C4301.82,1465.5 3951.5,827.18 3425.93,504.543L3425.93,3709.62"/>
                </clipPath>
                <g clip-path="url(#_clip3)">
                    <rect id="path87" x="3425.93" y="2090.47" width="875.891" height="2644.32" style="fill:rgb(33,51,51);fill-rule:nonzero;"/>
                </g>
            </g>
        </g>
    </g>
</svg>
