<?xml version="1.0" encoding="UTF-8"?>
<!DOCTYPE svg PUBLIC "-//W3C//DTD SVG 1.1//EN" "http://www.w3.org/Graphics/SVG/1.1/DTD/svg11.dtd">
<svg xmlns="http://www.w3.org/2000/svg" version="1.1" width="2153px" height="1573px" style="shape-rendering:geometricPrecision; text-rendering:geometricPrecision; image-rendering:optimizeQuality; fill-rule:evenodd; clip-rule:evenodd" xmlns:xlink="http://www.w3.org/1999/xlink">
<g><path style="opacity:0.998" fill="#005ba8" d="M 2117.5,-0.5 C 2123.17,-0.5 2128.83,-0.5 2134.5,-0.5C 2140.33,0.414869 2146.33,1.08154 2152.5,1.5C 2152.5,2.5 2152.5,3.5 2152.5,4.5C 2144.14,10.6929 2136.97,18.0262 2131,26.5C 2127.03,28.9795 2124.03,32.3129 2122,36.5C 2120,42.8274 2118.17,49.1607 2116.5,55.5C 2102.98,66.1915 2089.31,76.6915 2075.5,87C 2067.36,94.7805 2061.36,103.947 2057.5,114.5C 2061.19,124.229 2063.85,134.229 2065.5,144.5C 2065.16,146.867 2064.66,149.2 2064,151.5C 2054.85,156.998 2045.69,162.498 2036.5,168C 2016.97,187.199 1997.14,206.032 1977,224.5C 1970.47,231.724 1964.31,239.224 1958.5,247C 1951.23,251.219 1944.39,256.052 1938,261.5C 1934.41,267.675 1931.08,274.009 1928,280.5C 1926.7,283.432 1924.7,285.766 1922,287.5C 1920.91,290.044 1920.24,292.711 1920,295.5C 1917.8,297.621 1915.3,299.288 1912.5,300.5C 1909.62,305.086 1906.62,309.586 1903.5,314C 1896.85,313.597 1892.35,316.43 1890,322.5C 1888.85,323.743 1887.51,324.743 1886,325.5C 1886.24,330.02 1885.07,334.02 1882.5,337.5C 1879.98,339.19 1877.98,341.357 1876.5,344C 1872.73,345.302 1869.56,347.469 1867,350.5C 1865.56,353.603 1863.73,356.436 1861.5,359C 1857.4,361.467 1853.57,364.301 1850,367.5C 1848.42,373.671 1845.08,378.671 1840,382.5C 1838.18,386.77 1836.52,391.103 1835,395.5C 1832.32,398.016 1829.82,400.683 1827.5,403.5C 1821.93,405.865 1816.77,408.865 1812,412.5C 1805.01,422.81 1799.34,433.81 1795,445.5C 1789.37,451.293 1783.54,456.96 1777.5,462.5C 1776.06,465.05 1774.89,467.716 1774,470.5C 1769.67,474.167 1765.33,477.833 1761,481.5C 1754.08,493.68 1746.41,505.347 1738,516.5C 1737.11,521.169 1735.45,525.503 1733,529.5C 1728.03,531.826 1723.03,534.159 1718,536.5C 1716.17,542.434 1714.51,548.434 1713,554.5C 1711.67,557.167 1709.67,559.167 1707,560.5C 1704.81,564.749 1702.81,569.082 1701,573.5C 1693.75,575.117 1689.25,579.617 1687.5,587C 1690.19,594.44 1688.03,599.94 1681,603.5C 1678.93,610.723 1676.26,617.723 1673,624.5C 1670.71,625.79 1668.71,627.457 1667,629.5C 1665.11,633.44 1662.61,636.94 1659.5,640C 1654.9,642.215 1650.73,645.048 1647,648.5C 1643.56,656.574 1640.9,664.907 1639,673.5C 1637.07,677.698 1634.4,681.365 1631,684.5C 1627.39,692.05 1624.06,699.717 1621,707.5C 1617.18,711.814 1613.84,716.481 1611,721.5C 1607.97,722.617 1605.3,724.284 1603,726.5C 1598.38,734.656 1594.72,743.323 1592,752.5C 1589,754.833 1586,757.167 1583,759.5C 1581.71,766.662 1579.21,773.329 1575.5,779.5C 1573.68,780.491 1572.18,781.824 1571,783.5C 1570.67,786.5 1570.33,789.5 1570,792.5C 1565.89,794.032 1562.06,796.032 1558.5,798.5C 1556.75,804.672 1553.91,810.338 1550,815.5C 1549.75,818.2 1549.75,820.867 1550,823.5C 1539.58,843.672 1530.25,864.338 1522,885.5C 1515.98,893.545 1510.98,902.212 1507,911.5C 1506.87,917.914 1506.2,924.247 1505,930.5C 1502,933.167 1499,935.833 1496,938.5C 1494.75,945.592 1493.08,952.592 1491,959.5C 1481.59,967.994 1477.59,978.661 1479,991.5C 1474.03,1000.48 1469.03,1009.48 1464,1018.5C 1459.06,1037.31 1453.73,1055.98 1448,1074.5C 1444.67,1077.83 1441.33,1081.17 1438,1084.5C 1439.16,1095.09 1436.82,1104.76 1431,1113.5C 1430.98,1124.39 1428.65,1134.72 1424,1144.5C 1422.56,1154.71 1420.22,1164.71 1417,1174.5C 1415.25,1177.67 1413.25,1180.67 1411,1183.5C 1410.79,1186.62 1410.13,1189.62 1409,1192.5C 1402.17,1199.98 1396.17,1207.98 1391,1216.5C 1389.99,1226.88 1388.66,1237.22 1387,1247.5C 1382.77,1257.39 1378.11,1267.06 1373,1276.5C 1370.15,1291.58 1366.81,1306.58 1363,1321.5C 1362.67,1325.17 1362.33,1328.83 1362,1332.5C 1355.88,1346.24 1353.88,1360.57 1356,1375.5C 1355.21,1388.95 1348.37,1397.45 1335.5,1401C 1329.09,1402.7 1322.76,1404.7 1316.5,1407C 1312.83,1407.33 1309.17,1407.67 1305.5,1408C 1292.23,1412.19 1278.73,1415.36 1265,1417.5C 1253.63,1415.87 1242.47,1413.37 1231.5,1410C 1221.33,1400.5 1211.17,1391 1201,1381.5C 1199.3,1379.3 1197.8,1376.97 1196.5,1374.5C 1207.24,1199 1210.41,1023.33 1206,847.5C 1204.01,824.882 1203.01,802.216 1203,779.5C 1200.57,758.892 1198.74,738.225 1197.5,717.5C 1197.57,698.293 1200.73,679.626 1207,661.5C 1210.31,657.58 1214.48,654.747 1219.5,653C 1224.69,645.904 1231.69,642.237 1240.5,642C 1256.64,632.139 1273.3,631.139 1290.5,639C 1297.34,642.922 1304.34,646.588 1311.5,650C 1315.35,652.854 1318.85,656.021 1322,659.5C 1324.52,667.313 1326.19,675.313 1327,683.5C 1327.76,769.198 1329.76,854.865 1333,940.5C 1333.18,947.63 1334.18,954.63 1336,961.5C 1337.33,967.193 1340.49,968.693 1345.5,966C 1353.4,958.042 1358.56,948.542 1361,937.5C 1367.57,930.913 1372.57,923.247 1376,914.5C 1381.77,902.289 1386.43,889.622 1390,876.5C 1397.32,871.521 1400.65,864.521 1400,855.5C 1408.08,839.28 1415.42,822.613 1422,805.5C 1425.82,797.181 1430.16,789.181 1435,781.5C 1437.45,772.597 1441.45,764.597 1447,757.5C 1451.17,741.17 1458.5,726.503 1469,713.5C 1474.63,697.554 1483.3,683.554 1495,671.5C 1495.46,660.25 1498.13,649.583 1503,639.5C 1509.97,633.532 1516.64,627.199 1523,620.5C 1534.73,595.759 1550.73,574.093 1571,555.5C 1573.3,551.696 1575.8,548.03 1578.5,544.5C 1583.13,541.14 1587.97,538.14 1593,535.5C 1600.49,522.514 1607.49,509.18 1614,495.5C 1629.38,477.122 1644.38,458.456 1659,439.5C 1664.43,428.963 1671.1,419.296 1679,410.5C 1680.67,406.167 1682.33,401.833 1684,397.5C 1689.41,393.543 1694.91,389.71 1700.5,386C 1706.67,379.167 1712.83,372.333 1719,365.5C 1721,362.167 1723,358.833 1725,355.5C 1729.33,351.833 1733.67,348.167 1738,344.5C 1741.49,336.847 1745.49,329.513 1750,322.5C 1761.38,312.787 1773.04,303.453 1785,294.5C 1789,288.5 1793,282.5 1797,276.5C 1819.22,253.27 1842.22,231.27 1866,210.5C 1868.54,205.239 1871.71,200.406 1875.5,196C 1887.1,194.587 1896.6,189.421 1904,180.5C 1906.81,173.715 1909.81,167.048 1913,160.5C 1917.01,155.583 1921.85,151.75 1927.5,149C 1934.69,139.142 1943.69,131.476 1954.5,126C 1958.67,120.5 1962.83,115 1967,109.5C 1971.71,105.12 1976.71,101.12 1982,97.5C 1989.67,83.5 2000.83,73.3333 2015.5,67C 2024.62,62.9392 2033.62,58.6058 2042.5,54C 2044.11,50.728 2046.11,47.728 2048.5,45C 2053.55,41.8061 2058.89,39.1394 2064.5,37C 2066.5,33.8473 2067.67,30.3473 2068,26.5C 2069.06,23.4384 2070.89,20.9384 2073.5,19C 2083.42,15.3722 2092.76,10.7055 2101.5,5C 2105.9,4.25418 2110.23,3.25418 2114.5,2C 2115.57,1.14825 2116.57,0.314913 2117.5,-0.5 Z"/></g>
<g><path style="opacity:0.994" fill="#00a18b" d="M 1348.5,278.5 C 1354.46,278.732 1360.3,279.732 1366,281.5C 1370.64,280.672 1375.31,280.006 1380,279.5C 1396.46,281.056 1412.96,281.889 1429.5,282C 1440.06,282.543 1450.06,285.043 1459.5,289.5C 1461.43,288.62 1463.26,287.62 1465,286.5C 1469.09,288.197 1473.26,289.697 1477.5,291C 1485.55,291.178 1493.55,291.844 1501.5,293C 1508.8,297.147 1516.46,300.48 1524.5,303C 1533.19,303.868 1541.86,304.868 1550.5,306C 1571.72,313.408 1592.72,321.408 1613.5,330C 1614.9,333.064 1617.23,335.064 1620.5,336C 1643.82,343.08 1665.66,353.247 1686,366.5C 1687.01,368.025 1687.51,369.692 1687.5,371.5C 1682.28,372.072 1677.45,373.738 1673,376.5C 1673.92,380.853 1673.58,385.186 1672,389.5C 1669.43,390.009 1667.1,391.009 1665,392.5C 1663.27,396.244 1661.77,400.077 1660.5,404C 1658.49,405.678 1656.32,407.178 1654,408.5C 1653.08,411.101 1652.41,413.768 1652,416.5C 1644.35,425.129 1637.69,434.462 1632,444.5C 1628.68,449.927 1624.18,451.427 1618.5,449C 1614.8,445.633 1611.46,441.966 1608.5,438C 1594.21,433.512 1579.88,429.178 1565.5,425C 1562.44,422.277 1559.11,419.944 1555.5,418C 1546.93,418.034 1538.6,416.701 1530.5,414C 1525.67,410.748 1520.67,407.748 1515.5,405C 1512.5,404.667 1509.5,404.333 1506.5,404C 1505.39,402.43 1504.05,401.097 1502.5,400C 1497.5,399.667 1492.5,399.333 1487.5,399C 1479.78,396.427 1471.95,394.26 1464,392.5C 1457.48,394.496 1451.98,392.996 1447.5,388C 1443.72,386.184 1440.05,386.517 1436.5,389C 1433.83,389.667 1431.17,389.667 1428.5,389C 1423.38,386.94 1418.38,384.607 1413.5,382C 1409.28,380.528 1404.94,379.528 1400.5,379C 1385.66,378.457 1370.83,378.624 1356,379.5C 1342.35,377.924 1328.68,377.258 1315,377.5C 1284.61,381.717 1254.11,385.217 1223.5,388C 1212.17,392 1200.83,396 1189.5,400C 1181.07,400.796 1172.73,402.129 1164.5,404C 1160.87,406.63 1157.53,409.63 1154.5,413C 1149.39,415.067 1144.05,416.401 1138.5,417C 1127.85,421.816 1117.85,427.316 1108.5,433.5C 1105.87,432.56 1103.2,432.393 1100.5,433C 1086.33,441.918 1072,450.585 1057.5,459C 1049.81,461.928 1042.64,465.761 1036,470.5C 1033.22,474.951 1030.05,479.117 1026.5,483C 1015.08,488.122 1004.58,494.622 995,502.5C 994.28,504.112 994.446,505.612 995.5,507C 985.539,520.628 973.872,532.628 960.5,543C 956.779,545.527 952.779,547.527 948.5,549C 945.292,553.247 942.458,557.747 940,562.5C 933.82,570.899 926.32,572.399 917.5,567C 908.317,567.26 899.151,567.093 890,566.5C 885.648,567.515 881.315,568.515 877,569.5C 871.594,568.598 866.427,566.932 861.5,564.5C 858.192,565.395 854.859,566.229 851.5,567C 842.634,567.631 833.8,568.464 825,569.5C 821.02,569.222 816.854,568.722 812.5,568C 804.937,565.28 803.437,560.447 808,553.5C 812.064,547.764 815.73,541.764 819,535.5C 827.969,529.193 836.302,522.193 844,514.5C 847.27,508.96 850.27,503.293 853,497.5C 869.237,484.267 884.571,469.934 899,454.5C 900.796,451.073 902.963,447.906 905.5,445C 909.116,443.513 912.783,442.18 916.5,441C 920.079,435.397 924.746,431.397 930.5,429C 933.168,424.826 936.835,421.826 941.5,420C 948.913,410.585 957.58,402.585 967.5,396C 975.97,392.522 982.97,387.189 988.5,380C 994.189,377.395 1000.19,376.062 1006.5,376C 1014.18,371.494 1021.51,366.494 1028.5,361C 1035.7,356.821 1043.37,353.821 1051.5,352C 1055.04,350.392 1058.04,348.058 1060.5,345C 1074.8,340.346 1088.47,334.346 1101.5,327C 1110.08,327.485 1117.58,324.985 1124,319.5C 1126.98,321.247 1130.15,321.747 1133.5,321C 1145.62,316.187 1157.62,311.187 1169.5,306C 1173.83,305.667 1178.17,305.333 1182.5,305C 1188.28,302.112 1194.28,299.779 1200.5,298C 1210.1,296.266 1219.44,293.599 1228.5,290C 1245.36,290.415 1261.69,287.749 1277.5,282C 1295.67,279.476 1313.84,279.309 1332,281.5C 1337.78,281.309 1343.28,280.309 1348.5,278.5 Z"/></g>
<g><path style="opacity:0.995" fill="#00a08b" d="M 1322.5,1572.5 C 1320.5,1572.5 1318.5,1572.5 1316.5,1572.5C 1312.33,1568.5 1307.33,1567 1301.5,1568C 1300.61,1569.61 1299.61,1571.11 1298.5,1572.5C 1296.5,1572.5 1294.5,1572.5 1292.5,1572.5C 1286.83,1570.66 1281.16,1568.49 1275.5,1566C 1270.38,1565.29 1265.38,1565.79 1260.5,1567.5C 1255.58,1564.55 1250.24,1562.38 1244.5,1561C 1230.11,1559.41 1215.78,1557.41 1201.5,1555C 1197.78,1551.62 1193.78,1548.62 1189.5,1546C 1174.01,1542.63 1158.67,1538.63 1143.5,1534C 1126.81,1526.88 1109.81,1520.55 1092.5,1515C 1081.55,1510.19 1070.89,1504.86 1060.5,1499C 1048.49,1495.49 1036.82,1491.16 1025.5,1486C 1021.18,1480 1015.51,1476 1008.5,1474C 1005.02,1470.76 1001.35,1467.76 997.5,1465C 988.167,1460 978.833,1455 969.5,1450C 964.706,1447.21 961.372,1443.21 959.5,1438C 960.587,1434.33 962.087,1430.83 964,1427.5C 968.721,1421.78 973.054,1415.78 977,1409.5C 976.802,1403.85 976.802,1398.18 977,1392.5C 979.865,1386.96 983.532,1381.96 988,1377.5C 990.584,1371.36 991.25,1365.02 990,1358.5C 992.833,1354.33 995.667,1350.17 998.5,1346C 1001.46,1344.15 1004.46,1344.15 1007.5,1346C 1014,1349.75 1020.34,1353.75 1026.5,1358C 1038.61,1372.55 1053.61,1382.89 1071.5,1389C 1092.42,1404.3 1114.76,1417.3 1138.5,1428C 1151.67,1431.87 1164.67,1436.21 1177.5,1441C 1184.95,1441.75 1192.28,1443.09 1199.5,1445C 1207.05,1448.94 1214.71,1452.61 1222.5,1456C 1238.64,1457.8 1254.64,1460.47 1270.5,1464C 1276.01,1464.5 1281.51,1464.33 1287,1463.5C 1301.04,1466.15 1315.21,1467.82 1329.5,1468.5C 1333.24,1467.98 1336.91,1467.15 1340.5,1466C 1346.54,1461.15 1353.2,1459.82 1360.5,1462C 1368.83,1462.67 1377.17,1462.67 1385.5,1462C 1406.43,1456.31 1427.59,1451.81 1449,1448.5C 1454.44,1449.99 1459.94,1450.82 1465.5,1451C 1475.25,1447.96 1484.92,1444.63 1494.5,1441C 1515.33,1435.94 1536,1430.28 1556.5,1424C 1560.26,1419.78 1564.93,1417.12 1570.5,1416C 1574.02,1408.47 1580.02,1404.81 1588.5,1405C 1594.39,1401.37 1600.73,1398.7 1607.5,1397C 1614.47,1390.85 1621.81,1385.18 1629.5,1380C 1633.05,1378.83 1636.71,1378.16 1640.5,1378C 1643.83,1376.33 1647.17,1374.67 1650.5,1373C 1663.19,1363.64 1675.85,1354.3 1688.5,1345C 1692.78,1342.85 1697.11,1340.85 1701.5,1339C 1704.05,1335.41 1706.21,1331.58 1708,1327.5C 1723.22,1315.95 1737.56,1303.28 1751,1289.5C 1765.91,1272.02 1780.57,1254.35 1795,1236.5C 1799.42,1229.99 1804.09,1223.66 1809,1217.5C 1810.12,1214.22 1811.12,1210.88 1812,1207.5C 1818.15,1194.88 1825.15,1182.55 1833,1170.5C 1835.67,1164.5 1838.33,1158.5 1841,1152.5C 1845.33,1146.83 1849.67,1141.17 1854,1135.5C 1853.25,1129.89 1852.91,1124.22 1853,1118.5C 1855.67,1115.83 1858.33,1113.17 1861,1110.5C 1861.36,1099.1 1864.36,1088.43 1870,1078.5C 1871.98,1068.21 1874.98,1058.21 1879,1048.5C 1879.69,1045 1879.19,1041.66 1877.5,1038.5C 1882.17,1029.81 1884.67,1020.48 1885,1010.5C 1885.59,1003.65 1885.42,996.821 1884.5,990C 1885.18,984.279 1886.18,978.613 1887.5,973C 1886.89,970.942 1885.89,969.109 1884.5,967.5C 1890.98,954.942 1892.31,941.775 1888.5,928C 1889.33,923.833 1890.17,919.667 1891,915.5C 1892.12,900.19 1892.79,884.857 1893,869.5C 1893.7,867.722 1894.2,865.888 1894.5,864C 1893.07,858.974 1891.23,854.14 1889,849.5C 1888.81,841.782 1888.15,834.115 1887,826.5C 1884.77,822.54 1882.94,818.373 1881.5,814C 1881.99,812.018 1882.99,810.351 1884.5,809C 1878.29,803.193 1875.79,796.026 1877,787.5C 1874.28,779.069 1871.28,770.735 1868,762.5C 1867.26,752.892 1865.26,743.559 1862,734.5C 1857.75,728.335 1853.75,722.002 1850,715.5C 1849.67,711.5 1849.33,707.5 1849,703.5C 1846.91,700.319 1844.57,697.319 1842,694.5C 1835.82,678.479 1828.82,662.812 1821,647.5C 1819.18,645.595 1817.18,643.928 1815,642.5C 1814.81,635.778 1811.81,630.778 1806,627.5C 1802,618.833 1798,610.167 1794,601.5C 1787.95,594.452 1782.28,587.119 1777,579.5C 1770.3,572.468 1763.3,565.802 1756,559.5C 1753.16,555.828 1750.83,551.828 1749,547.5C 1748.14,535.071 1750.81,523.404 1757,512.5C 1758.17,511.333 1759.33,510.167 1760.5,509C 1767.51,508.32 1770.34,504.486 1769,497.5C 1774.68,485.499 1782.84,475.666 1793.5,468C 1798.11,466.71 1802.78,466.376 1807.5,467C 1813.12,474.411 1818.62,481.911 1824,489.5C 1828.22,493.697 1833.06,497.03 1838.5,499.5C 1839.97,502.298 1840.8,505.298 1841,508.5C 1846.7,514.532 1852.7,520.199 1859,525.5C 1864.62,533.453 1870.62,541.12 1877,548.5C 1877.18,551.553 1877.68,554.553 1878.5,557.5C 1888.77,562.613 1893.93,570.947 1894,582.5C 1900,589.823 1906,597.156 1912,604.5C 1913.53,608.09 1914.86,611.757 1916,615.5C 1917.15,616.743 1918.49,617.743 1920,618.5C 1923.73,627.681 1927.06,637.015 1930,646.5C 1934.05,650.88 1937.71,655.546 1941,660.5C 1942.13,663.377 1942.79,666.377 1943,669.5C 1947.36,673.754 1949.19,678.754 1948.5,684.5C 1950.49,689.16 1952.99,693.494 1956,697.5C 1957.33,702.838 1958.67,708.172 1960,713.5C 1964.19,714.522 1966.36,717.189 1966.5,721.5C 1965.5,724.797 1965.34,728.131 1966,731.5C 1971.1,748.919 1975.1,766.586 1978,784.5C 1983.54,786.702 1986.87,790.702 1988,796.5C 1988.6,803.68 1988.44,810.846 1987.5,818C 1989.65,830.091 1991.15,842.257 1992,854.5C 1992.45,875.04 1993.62,895.54 1995.5,916C 1994.27,928.399 1992.6,940.732 1990.5,953C 1990.75,957.734 1991.41,962.4 1992.5,967C 1991.91,971.179 1991.25,975.346 1990.5,979.5C 1992.17,984.987 1992.84,990.487 1992.5,996C 1991.01,1000.35 1990.18,1004.85 1990,1009.5C 1988.92,1012 1987.59,1014.33 1986,1016.5C 1985.68,1027.09 1984.51,1037.59 1982.5,1048C 1982.95,1050.57 1983.95,1052.9 1985.5,1055C 1982.69,1059.8 1979.19,1063.97 1975,1067.5C 1977.35,1082.38 1974.35,1096.05 1966,1108.5C 1960.28,1124.4 1956.61,1140.73 1955,1157.5C 1953.49,1158.26 1952.15,1159.26 1951,1160.5C 1948.41,1168.01 1944.07,1174.35 1938,1179.5C 1937.91,1185.77 1936.58,1191.77 1934,1197.5C 1921.35,1233.15 1902.35,1264.82 1877,1292.5C 1871.41,1305.03 1863.41,1315.7 1853,1324.5C 1846.2,1337.97 1836.53,1348.97 1824,1357.5C 1818.44,1366.11 1812.27,1374.28 1805.5,1382C 1802.8,1381.56 1800.13,1381.73 1797.5,1382.5C 1793.48,1388.69 1788.31,1393.69 1782,1397.5C 1777.94,1404.89 1773.11,1411.72 1767.5,1418C 1757.96,1422.29 1748.62,1426.96 1739.5,1432C 1729.46,1441.04 1719.13,1449.71 1708.5,1458C 1690.19,1466.48 1672.85,1476.48 1656.5,1488C 1649.92,1491.19 1643.25,1494.19 1636.5,1497C 1628.84,1502.5 1620.84,1507.5 1612.5,1512C 1607.32,1513.96 1601.99,1515.29 1596.5,1516C 1595.12,1517.71 1593.46,1519.05 1591.5,1520C 1581.77,1523.13 1572.1,1526.47 1562.5,1530C 1557.83,1530.33 1553.17,1530.67 1548.5,1531C 1546.22,1533.79 1543.55,1535.96 1540.5,1537.5C 1532.63,1539.46 1524.63,1540.62 1516.5,1541C 1512.5,1546.68 1507.16,1550.35 1500.5,1552C 1492.51,1553.06 1484.51,1554.06 1476.5,1555C 1470.18,1557.44 1463.68,1559.27 1457,1560.5C 1451.53,1559.45 1446.03,1559.29 1440.5,1560C 1437.16,1562.51 1433.49,1564.35 1429.5,1565.5C 1424.53,1564.37 1419.53,1563.37 1414.5,1562.5C 1408.75,1563.69 1403.09,1565.19 1397.5,1567C 1385.84,1566.48 1374.18,1566.15 1362.5,1566C 1353.43,1570.49 1343.93,1571.66 1334,1569.5C 1329.75,1569.35 1325.91,1570.35 1322.5,1572.5 Z"/></g>
<g><path style="opacity:0.998" fill="#005ba8" d="M -0.5,644.5 C 42.1719,644.167 84.8385,644.5 127.5,645.5C 194,827.167 260.5,1008.83 327,1190.5C 394.53,1008.91 461.863,827.244 529,645.5C 571.761,644.503 614.594,644.17 657.5,644.5C 657.5,905.5 657.5,1166.5 657.5,1427.5C 613.167,1427.5 568.833,1427.5 524.5,1427.5C 524.667,1297.83 524.5,1168.17 524,1038.5C 476.932,1167.87 429.765,1297.2 382.5,1426.5C 346.267,1427.83 310.1,1427.83 274,1426.5C 226.53,1297.76 178.863,1169.09 131,1040.5C 129.55,1169.49 129.05,1298.49 129.5,1427.5C 86.1667,1427.5 42.8333,1427.5 -0.5,1427.5C -0.5,1166.5 -0.5,905.5 -0.5,644.5 Z"/></g>
<g><path style="opacity:0.998" fill="#005ba8" d="M 744.5,644.5 C 788.167,644.5 831.833,644.5 875.5,644.5C 875.333,773.834 875.5,903.167 876,1032.5C 923.667,903.5 971.333,774.5 1019,645.5C 1065.76,644.503 1112.59,644.17 1159.5,644.5C 1064.5,905.323 969.003,1165.99 873,1426.5C 830.239,1427.5 787.406,1427.83 744.5,1427.5C 744.5,1166.5 744.5,905.5 744.5,644.5 Z"/></g>
</svg>
