<?xml version="1.0" encoding="UTF-8" standalone="no"?>
<!DOCTYPE svg PUBLIC "-//W3C//DTD SVG 1.1//EN" "http://www.w3.org/Graphics/SVG/1.1/DTD/svg11.dtd">
<svg width="100%" height="100%" viewBox="0 0 200 200" version="1.1" xmlns="http://www.w3.org/2000/svg" xmlns:xlink="http://www.w3.org/1999/xlink" xml:space="preserve" xmlns:serif="http://www.serif.com/" style="fill-rule:evenodd;clip-rule:evenodd;stroke-linejoin:round;stroke-miterlimit:2;">
    <g id="MVV" transform="matrix(1.44354,0,0,-1.44354,-18.0323,933.037)">
        <g id="g161" transform="matrix(1,0,0,1,54.74,577.066)">
            <path id="path163" d="M0,0C0,1.935 -1.609,3.503 -3.593,3.503C-5.578,3.503 -7.186,1.935 -7.186,0C-7.186,-1.935 -5.578,-3.503 -3.593,-3.503C-1.609,-3.503 0,-1.935 0,0" style="fill:rgb(171,217,26);fill-rule:nonzero;"/>
        </g>
        <g id="g165" transform="matrix(1,0,0,1,51.183,559.618)">
            <path id="path167" d="M0,0C-9.875,0 -17.909,7.833 -17.909,17.461C-17.909,27.09 -9.875,34.923 0,34.923C3.548,34.923 6.978,33.913 9.921,32.002C10.723,31.48 10.94,30.423 10.405,29.641C9.87,28.857 8.787,28.646 7.984,29.167C5.617,30.706 2.856,31.518 0,31.518C-7.949,31.518 -14.416,25.212 -14.416,17.461C-14.416,9.71 -7.949,3.406 0,3.406C2.86,3.406 5.623,4.22 7.991,5.76C8.793,6.282 9.877,6.071 10.413,5.289C10.948,4.507 10.732,3.45 9.929,2.928C6.986,1.013 3.552,0 0,0" style="fill:rgb(7,46,82);fill-rule:nonzero;"/>
        </g>
        <g id="g169" transform="matrix(1,0,0,1,51.174,566.603)">
            <path id="path171" d="M0,0C-0.965,0 -1.746,0.762 -1.746,1.703C-1.746,2.643 -0.965,3.406 0,3.406C3.999,3.406 7.252,6.577 7.252,10.476C7.252,14.375 3.999,17.546 0,17.546C-3.999,17.546 -7.252,14.375 -7.252,10.476C-7.252,9.077 -6.834,7.724 -6.042,6.565C-5.508,5.782 -5.726,4.725 -6.529,4.203C-7.331,3.683 -8.416,3.895 -8.95,4.678C-10.124,6.398 -10.745,8.403 -10.745,10.476C-10.745,16.253 -5.925,20.952 -0,20.952C5.924,20.952 10.745,16.253 10.745,10.476C10.745,4.7 5.925,0 0,0" style="fill:rgb(171,217,26);fill-rule:nonzero;"/>
        </g>
        <g id="g173" transform="matrix(1.7992,0,0,1.7992,87.1764,585.377)">
            <path id="path175" d="M0,0L0,-9.424C0,-10.099 -0.511,-10.618 -1.182,-10.618C-1.869,-10.618 -2.381,-10.099 -2.381,-9.424L-2.381,-3.788L-4.568,-7.159C-4.903,-7.678 -5.22,-7.902 -5.697,-7.902C-6.155,-7.902 -6.49,-7.678 -6.825,-7.159L-9.012,-3.752L-9.012,-9.424C-9.012,-10.099 -9.523,-10.618 -10.193,-10.618C-10.881,-10.618 -11.393,-10.099 -11.393,-9.424L-11.393,0C-11.393,0.692 -10.899,1.21 -10.229,1.21C-9.717,1.21 -9.382,0.968 -8.976,0.311L-5.697,-4.79L-2.416,0.311C-1.993,0.968 -1.676,1.21 -1.164,1.21C-0.494,1.21 0,0.692 0,0" style="fill:rgb(7,46,82);fill-rule:nonzero;"/>
        </g>
        <g id="g205" transform="matrix(1.7992,0,0,1.7992,85.5608,555.969)">
            <path id="path207" d="M12.894,16.432C12.894,16.224 12.859,15.999 12.753,15.809L8.785,6.523C8.556,5.987 8.185,5.728 7.656,5.728C7.128,5.728 6.739,5.987 6.528,6.523L2.542,15.809C2.454,15.999 2.401,16.224 2.401,16.432C2.401,17.054 2.913,17.556 3.583,17.556C4.094,17.556 4.482,17.262 4.694,16.726L7.656,9.583L10.602,16.726C10.831,17.262 11.219,17.556 11.73,17.556C12.401,17.556 12.894,17.054 12.894,16.432" style="fill:rgb(7,46,82);fill-rule:nonzero;"/>
        </g>
        <g id="g237" transform="matrix(1.7992,0,0,1.7992,130.258,585.533)">
            <path id="path239" d="M0,0C0,-0.207 -0.035,-0.432 -0.141,-0.622L-4.109,-9.909C-4.338,-10.445 -4.709,-10.704 -5.238,-10.704C-5.767,-10.704 -6.155,-10.445 -6.366,-9.909L-10.352,-0.622C-10.44,-0.432 -10.493,-0.208 -10.493,-0C-10.493,0.622 -9.982,1.124 -9.312,1.124C-8.8,1.124 -8.412,0.83 -8.201,0.294L-5.238,-6.848L-2.293,0.294C-2.063,0.83 -1.675,1.124 -1.164,1.124C-0.494,1.124 0,0.622 0,0" style="fill:rgb(7,46,82);fill-rule:nonzero;"/>
        </g>
    </g>
</svg>
