<?xml version="1.0" encoding="UTF-8" standalone="no"?>
<!DOCTYPE svg PUBLIC "-//W3C//DTD SVG 1.1//EN" "http://www.w3.org/Graphics/SVG/1.1/DTD/svg11.dtd">
<svg width="100%" height="100%" viewBox="0 0 200 200" version="1.1" xmlns="http://www.w3.org/2000/svg" xmlns:xlink="http://www.w3.org/1999/xlink" xml:space="preserve" xmlns:serif="http://www.serif.com/" style="fill-rule:evenodd;clip-rule:evenodd;stroke-linejoin:round;stroke-miterlimit:2;">
    <g id="HVV" transform="matrix(0.618921,0,0,0.618921,6446.98,-3816.63)">
        <g transform="matrix(1,0,0,1,-10368,6294)">
            <path d="M200.4,68.3L187.8,68.3L163.2,19L178,19L194.4,53.5L211.3,19L226.2,19L200.4,68.3ZM135.1,68.3L122.5,68.3L97.9,19L112.7,19L129.1,53.5L146,19L160.9,19L135.1,68.3ZM55.3,46.3L55.3,68.3L42.4,68.3L42.4,3.1L55.3,3.1L55.3,29.1C56.916,25.6 59.48,22.62 62.7,20.5C66.339,18.286 70.543,17.174 74.8,17.3C77.02,17.269 79.236,17.504 81.4,18C83.349,18.452 85.209,19.23 86.9,20.3C90.202,22.219 92.824,25.121 94.4,28.6C96.202,32.622 97.09,36.994 97,41.4L97,68.3L83.6,68.3L83.6,45.6C83.606,44.028 83.506,42.458 83.3,40.9C83.117,39.51 82.816,38.139 82.4,36.8C81.698,34.447 80.261,32.379 78.3,30.9C75.992,29.383 73.257,28.647 70.5,28.8C65.3,28.8 61.5,30.3 59,33.2C56.5,36.1 55.3,40.5 55.3,46.3" style="fill:rgb(250,30,65);fill-rule:nonzero;"/>
        </g>
        <g transform="matrix(1,0,0,1,-10368,6294)">
            <path d="M0,0L0,11.7L16.4,19.1L0,26.1L0,37.8L29.5,23.1L29.5,15.5L0,0Z" style="fill:rgb(0,255,0);fill-rule:nonzero;"/>
        </g>
    </g>
</svg>
