<?xml version="1.0" encoding="UTF-8" standalone="no"?>
<!DOCTYPE svg PUBLIC "-//W3C//DTD SVG 1.1//EN" "http://www.w3.org/Graphics/SVG/1.1/DTD/svg11.dtd">
<svg width="100%" height="100%" viewBox="0 0 200 200" version="1.1" xmlns="http://www.w3.org/2000/svg" xmlns:xlink="http://www.w3.org/1999/xlink" xml:space="preserve" xmlns:serif="http://www.serif.com/" style="fill-rule:evenodd;clip-rule:evenodd;stroke-linejoin:round;stroke-miterlimit:2;">
    <g transform="matrix(0.157765,0,0,0.157765,45.6498,39.4181)">
        <path id="path2523" d="M360.106,19.665L360.106,134.78L570.031,254.294L570.031,509.671L360.106,633.506L360.106,748.335L669.5,572.07L669.5,193.04L360.106,19.665" style="fill:rgb(0,126,50);fill-rule:nonzero;"/>
        <path id="path2525" d="M328.529,19.665L19.5,193.04L19.5,572.07L328.529,748.335L328.529,633.506L118.579,509.671L118.579,254.294L328.529,134.78L328.529,19.665" style="fill:rgb(85,171,38);fill-rule:nonzero;"/>
        <path id="path2527" d="M165.02,323.202L196.728,323.202L227.914,405.88L228.279,405.88L259.986,323.202L289.741,323.202L237.703,449.354L215.419,449.354L165.02,323.202" style="fill:rgb(0,126,50);fill-rule:nonzero;"/>
        <path id="path2529" d="M302.939,323.202L351.724,323.202C377.574,323.202 399.311,332.105 399.311,361.495C399.311,379.145 389.887,392.864 372.081,396.092L404.127,449.354L370.806,449.354L344.435,398.929L330.716,398.929L330.716,449.354L302.939,449.354L302.939,323.202ZM330.716,375.396L347.116,375.396C357.269,375.396 370.441,375.058 370.441,361.339C370.441,348.687 359.065,346.709 348.912,346.709L330.716,346.709L330.716,375.396" style="fill:rgb(0,126,50);fill-rule:nonzero;"/>
        <path id="path2531" d="M418.367,323.202L467.229,323.202C493.053,323.202 514.79,332.105 514.79,361.495C514.79,379.145 505.366,392.864 487.534,396.092L519.606,449.354L486.285,449.354L459.914,398.929L446.169,398.929L446.169,449.354L418.367,449.354L418.367,323.202ZM446.169,375.396L462.569,375.396C472.722,375.396 485.946,375.058 485.946,361.339C485.946,348.687 474.518,346.709 464.366,346.709L446.169,346.709L446.169,375.396" style="fill:rgb(0,126,50);fill-rule:nonzero;"/>
    </g>
</svg>
