<?xml version="1.0" encoding="UTF-8" standalone="no"?>
<!DOCTYPE svg PUBLIC "-//W3C//DTD SVG 1.1//EN" "http://www.w3.org/Graphics/SVG/1.1/DTD/svg11.dtd">
<svg width="100%" height="100%" viewBox="0 0 200 200" version="1.1" xmlns="http://www.w3.org/2000/svg" xmlns:xlink="http://www.w3.org/1999/xlink" xml:space="preserve" xmlns:serif="http://www.serif.com/" style="fill-rule:evenodd;clip-rule:evenodd;stroke-linejoin:round;stroke-miterlimit:2;">
    <g id="BVG" transform="matrix(0.170913,-1.00237e-48,1.00237e-48,0.170913,44.3338,44.0603)">
        <path d="M325,599.6L324.4,599.6L323.2,599.4L322.6,599.2L321.9,599.1L321.4,598.9L320.2,598.5L319,597.9L318.5,597.7L317.4,597L316.3,596.4L315.3,595.7L314.4,595.1L313.6,594.4L312.8,593.8L311.5,592.7L310.6,591.8L302,583.1L291.7,572.6L279.9,560.7L266.8,547.4L252.6,533L237.5,517.7L221.7,501.7L205.4,485.1L188.7,468.3L155.3,434.3L139,417.7L123,401.6L107.8,386.1L93.5,371.6L80.2,358L76.4,354.1L72.8,350.2L69.3,346.3L66,342.3L62.8,338.3L59.7,334.3L56.8,330.2L54,326.2L51.4,322L48.8,317.9L46.4,313.7L44.2,309.5L42.1,305.2L40,301L38.2,296.6L36.5,292.3L34.9,287.9L33.4,283.4L32,279L30.8,274.4L28.8,265.2L28,260.5L27.3,255.8L26.7,251L26.3,246.2L26,241.3L25.8,236.4L25.7,231.4L25.7,226.3L25.9,221.2L26.2,216.1L27,207.8L28.1,199.6L29.7,191.6L31.5,183.6L33.7,175.8L36.3,168.2L39.2,160.7L42.3,153.4L45.9,146.3L49.7,139.3L53.8,132.6L58.2,126L62.9,119.7L67.8,113.6L73,107.8L78.5,102.2L84.2,96.8L90.2,91.8L96.4,87L102.8,82.5L109.4,78.3L116.3,74.4L123.3,70.8L130.6,67.6L138,64.7L145.6,62.2L153.4,60L161.3,58.2L169.4,56.8L177.6,55.8L186,55.1L194.5,54.9L199.9,55L205.2,55.3L210.4,55.8L215.4,56.5L220.3,57.4L225.1,58.5L229.8,59.7L234.4,61.1L238.8,62.7L243.2,64.4L247.5,66.2L251.6,68.3L255.8,70.5L259.8,72.7L263.8,75.2L267.7,77.7L275.3,83.1L279,86L282.7,89L286.4,92.1L293.6,98.5L297.2,101.8L300.8,105.2L304.3,108.7L307.9,112.2L311.4,115.8L318.5,123.1L325.7,130.6L332.8,123.1L340,115.8L343.5,112.2L347.1,108.7L350.6,105.2L354.2,101.8L357.7,98.5L361.3,95.3L365,92.1L368.7,89L372.3,86L376.1,83.1L383.7,77.7L387.6,75.2L391.6,72.7L395.6,70.5L399.7,68.3L403.9,66.2L408.2,64.4L412.6,62.7L417,61.1L421.6,59.7L426.3,58.5L431.1,57.4L436,56.5L441,55.8L446.2,55.3L451.5,55L456.9,54.9L465.4,55.1L473.8,55.8L482,56.8L490.1,58.2L498,60L505.8,62.2L513.4,64.7L520.8,67.6L528,70.8L535.1,74.4L541.9,78.3L548.6,82.5L555,87L561.2,91.8L567.2,96.8L572.9,102.2L578.3,107.8L583.6,113.6L588.5,119.7L593.2,126L597.6,132.6L601.7,139.3L605.5,146.3L609.1,153.4L612.2,160.7L615.1,168.2L617.7,175.8L619.8,183.6L621.7,191.6L623.2,199.6L624.4,207.8L625.2,216.1L625.5,221.2L625.7,226.3L625.7,231.4L625.6,236.4L625.4,241.3L625.1,246.2L624.7,251L624.1,255.8L623.4,260.5L622.6,265.2L621.6,269.8L620.5,274.4L619.3,279L618,283.4L616.5,287.9L614.9,292.3L613.2,296.6L611.3,301L609.3,305.2L607.2,309.5L605,313.7L602.6,317.9L600,322L597.4,326.2L594.6,330.2L591.7,334.3L588.6,338.3L585.4,342.3L582.1,346.3L578.6,350.2L571.2,358L557.9,371.6L543.6,386.1L528.3,401.6L512.4,417.7L496.1,434.3L462.7,468.3L446,485.1L429.7,501.7L413.9,517.7L398.8,533L384.6,547.4L371.5,560.7L359.7,572.6L349.4,583.1L340.8,591.8L339.8,592.7L338.6,593.8L337.8,594.4L336.9,595.1L336,595.7L335.1,596.4L334,597L332.9,597.7L331.8,598.2L330.6,598.7L329.4,599.1L328.8,599.2L328.2,599.4L327,599.6L326.3,599.6L325.7,599.7L325,599.6Z" style="fill:rgb(253,223,0);fill-rule:nonzero;"/>
        <path d="M201.1,355.2L198.9,355L197.9,354.8L197.5,354.6L196.5,354.4L195.3,353.8L194.9,353.5L194.5,353.3L194.2,353L193.8,352.7L193.5,352.4L193.2,352L192.9,351.7L192.7,351.3L192.4,350.9L192.2,350.4L192,350L191.9,349.5L191.7,348.9L191.6,348.4L191.6,347.8L191.4,346.6L191.4,227.7L191.6,226.7L191.6,226.2L191.7,225.7L191.9,225.2L192,224.7L192.4,223.7L192.7,223.3L192.9,222.9L193.2,222.4L193.5,222.1L193.8,221.7L194.2,221.3L194.5,220.9L195.7,220L196.1,219.6L196.5,219.4L197,219.2L197.5,218.9L197.9,218.7L198.9,218.3L199.5,218.2L200.5,218L201.1,218L201.7,217.9L202.3,217.9L213.3,225.2L217.2,236.5L217.2,275.2L220.6,283.5L217.2,293.3L217.2,336.6L215,348.9L202.3,355.2L201.1,355.2Z" style="fill-rule:nonzero;"/>
        <path d="M202.3,355.2L207.5,342.2L217.2,336.6L227.9,336.6L229.2,336.5L230.4,336.4L231.5,336.2L232.6,335.9L233.6,335.6L234.5,335.2L235.4,334.9L237,333.9L237.7,333.4L238.3,332.8L238.9,332.1L239.4,331.5L239.9,330.8L240.4,330L240.8,329.3L241.1,328.5L241.5,327.7L241.7,326.8L242,325.9L242.4,324.1L242.5,323.1L242.7,322.2L242.8,321.2L242.8,320.2L242.9,319.1L243,317.1L243,312.7L242.9,310.5L242.8,309.4L242.8,308.3L242.7,307.4L242.3,305.4L242.2,304.4L241.6,302.6L241,301L240.5,300.2L240.1,299.5L239.6,298.7L239.1,298.1L238.5,297.4L237.8,296.9L237.1,296.3L235.5,295.3L233.5,294.5L232.5,294.2L231.3,293.9L230.1,293.7L228.8,293.5L227.5,293.4L226,293.3L217.2,293.3L212.4,283.5L217.2,275.2L225,275.2L226.5,275.1L227.9,274.9L229.2,274.7L230.5,274.4L232.7,273.8L233.6,273.4L235.4,272.4L236.2,271.9L236.8,271.3L237.5,270.7L238,270L238.6,269.4L239.4,268L239.8,267.2L240.4,265.6L241,263.2L241.1,262.4L241.2,261.5L241.3,260.7L241.4,259.8L241.4,258.9L241.5,257.3L241.5,255.6L241.4,253.1L241.4,250.8L241.3,249.7L241.1,247.7L240.9,246.7L240.7,245.8L240.1,243.4L239.7,242.7L239.4,242L239.1,241.4L238.6,240.8L238.2,240.3L237.7,239.7L235.9,238.5L235.2,238.1L233.6,237.5L232.8,237.3L231.9,237.1L230.9,236.9L229.8,236.7L228.7,236.6L227.5,236.6L226.3,236.5L217.2,236.5L206,230.8L202.3,217.9L232.1,217.9L234.9,218.1L237.5,218.3L240,218.7L242.4,219L244.6,219.5L246.7,220.1L248.6,220.8L250.4,221.5L252.1,222.3L253.7,223.1L256.5,225.1L257.7,226.1L258.8,227.2L259.9,228.4L260.8,229.6L262.4,232.2L263.1,233.6L263.7,235L264.2,236.4L264.6,237.9L265,239.5L265.3,241L265.6,242.6L266,245.8L266.1,247.5L266.2,249.1L266.2,250.8L266.3,252.5L266.3,253.8L266.2,255.2L265.9,259.1L265.5,261.7L265.3,262.9L265,264.1L263.8,267.7L262.3,271L261.7,272L261,273.1L260.3,274L259.5,275L258.7,275.9L257.8,276.7L256.8,277.6L255.8,278.4L253.6,279.8L252.3,280.5L251.1,281.1L249.7,281.7L248.3,282.2L246.8,282.7L245.2,283.1L243.5,283.5L245.3,283.6L247.1,283.8L248.7,284.1L250.3,284.5L251.8,284.9L253.2,285.5L254.6,286L257.2,287.4L259.4,289L260.5,289.9L261.5,290.8L263.3,292.8L264.1,293.8L264.8,295L265.5,296.1L266.1,297.2L266.7,298.4L267.2,299.7L267.7,300.9L268.1,302.1L268.5,303.4L269.1,306L269.4,307.4L269.5,308.7L269.7,310L269.8,311.3L269.8,317.9L269.7,319.9L269.5,321.9L269.2,323.9L268.9,325.8L268.5,327.7L268.1,329.5L267.6,331.3L267,333.1L265.6,336.5L264.7,338.2L263.8,339.7L262.7,341.3L261.6,342.7L260.4,344.1L257.6,346.7L256,347.9L254.3,349L252.5,350L250.6,351L248.5,351.8L246.3,352.6L244,353.3L241.5,353.8L238.9,354.3L236.2,354.7L233.3,355L230.2,355.2L202.3,355.2Z" style="fill-rule:nonzero;"/>
        <path d="M327.5,356.7L323.4,356.7L321.4,356.5L320.5,356.4L319.6,356.2L318.7,355.9L317.9,355.7L316.3,355.1L315.6,354.8L313.5,353.6L312.9,353.1L312.3,352.7L311.7,352.1L311.2,351.5L310.7,351L310.2,350.4L309.7,349.7L309.3,349.1L308.9,348.4L308.5,347.6L308.1,346.9L307.7,346.1L307.4,345.3L306.2,341.7L306,340.8L280.7,235.9L280.5,235L280.3,234L280,231.3L280,229.5L280.1,228.6L280.3,227L280.5,226.2L280.8,225.4L281,224.6L281.6,223.2L282,222.6L282.4,221.9L282.8,221.3L283.3,220.7L283.8,220.2L285,219.2L286.2,218.4L286.9,218L287.6,217.7L288.4,217.5L289.1,217.3L289.9,217.1L291.7,216.9L293.7,216.9L294.9,217L295.9,217.2L296.5,217.4L297,217.5L298,217.9L298.6,218.1L299.1,218.3L299.5,218.6L300,218.8L300.5,219.2L300.9,219.5L301.4,219.9L302.6,221.1L302.9,221.6L303.7,222.6L304.9,225L305.2,225.7L305.6,227.1L306,228.7L322.5,306.2L323.1,309L323.6,311.8L324.4,317.6L324.8,320.4L325.1,323.1L325.4,325.6L325.6,327.9L325.8,325.6L326.1,323.1L326.5,320.4L326.8,317.6L327.3,314.7L327.7,311.8L328.7,306.2L343.7,228.7L343.8,228L344,227.3L344.2,226.7L344.4,226L344.6,225.4L344.9,224.8L345.1,224.2L345.4,223.6L346.3,222.1L346.7,221.6L347,221.1L348.6,219.5L349,219.2L349.5,218.9L349.9,218.6L350.9,218L351.4,217.9L351.9,217.6L352.5,217.5L353,217.3L353.6,217.2L354.2,217L354.7,217L355.3,216.9L358.1,216.9L358.8,217L360.2,217.4L360.9,217.5L361.6,217.8L362.8,218.4L364.6,219.6L365.1,220L366.1,221L366.9,222.2L367.2,222.8L367.6,223.4L368.2,224.8L368.4,225.5L368.6,226.3L368.8,227.9L368.9,228.8L369,229.6L368.9,230.6L368.9,231.5L368.8,232.4L368.4,234.4L344.7,339.7L344.4,340.8L344.2,341.8L343.9,342.8L343.6,343.7L343.2,344.7L342.9,345.5L342.5,346.4L342.1,347.2L341.6,348L341.2,348.7L339.7,350.8L339.2,351.4L338.1,352.5L337.4,353L336.2,354L334.8,354.8L334.1,355.1L333.3,355.4L332.6,355.7L331.8,355.9L331,356.2L330.1,356.4L329.3,356.5L327.5,356.7Z" style="fill-rule:nonzero;"/>
        <path d="M433.4,356.7L425.1,356.7L421.6,356.5L418.1,356.2L415,355.7L411.9,355.1L409,354.4L406.4,353.5L403.8,352.5L401.4,351.4L399.1,350.1L397,348.6L395,347.1L393.2,345.4L391.5,343.6L390,341.6L388.5,339.5L387.2,337.3L385.9,334.9L384.8,332.4L383.8,329.8L383,327L382.2,324.1L381.5,321L380.9,317.8L380.3,314.4L379.9,310.9L379.5,307.3L379.2,303.6L379,299.7L378.9,295.6L378.8,291.4L378.7,287.1L378.8,282.5L379,278.1L379.3,273.9L379.7,269.8L380.2,265.9L380.9,262.2L381.6,258.6L382.5,255.1L383.5,251.8L384.5,248.7L385.7,245.7L387,242.9L388.4,240.2L389.8,237.7L391.4,235.3L393.1,233.1L396.7,229.1L398.6,227.3L402.8,224.1L405,222.8L407.3,221.5L409.7,220.4L412.1,219.5L414.7,218.6L417.3,217.9L419.9,217.4L422.7,216.9L425.5,216.6L428.4,216.4L434.3,216.4L436,216.5L437.8,216.7L439.8,216.9L441.8,217.2L443.9,217.5L446,217.9L450.2,218.9L451.3,219.2L452.3,219.5L454.3,220.3L455.3,220.6L456.3,221.1L457.2,221.5L459,222.5L460.6,223.5L461.3,224.1L461.9,224.7L462.6,225.5L462.9,225.8L463.2,226.3L463.4,226.8L464,227.8L464.2,228.3L464.6,229.5L464.7,230.2L464.9,230.9L464.9,233.5L464.8,234L464.7,234.6L464.6,235.1L464.4,235.6L464.2,236.2L464,236.7L463.8,237.1L463.6,237.6L463.3,238.1L462.4,239.3L461.6,240.1L461.3,240.5L460.5,241.1L460,241.4L459.6,241.7L459.2,241.9L458.7,242.1L458.2,242.4L457.7,242.6L457.2,242.7L456.7,242.9L455.7,243.1L455.2,243.1L454.6,243.2L453.6,243.2L453,243.1L452.5,243.1L452,243L450.9,242.8L449.7,242.5L447.4,241.9L444.8,241.1L443.4,240.7L441.9,240.4L440.4,240L438.7,239.7L436.9,239.4L435.1,239.2L434.1,239.2L433,239.1L432,239.1L430.9,239L429.4,239.1L428.1,239.2L426.7,239.3L425.3,239.5L424,239.8L422.7,240.2L421.5,240.6L419.1,241.8L418,242.5L417,243.3L415.9,244.1L414.9,245.1L413.9,246.2L413.1,247.5L412.2,248.8L411.3,250.3L410.6,251.8L409.8,253.6L409.2,255.4L408.5,257.3L407.9,259.4L407.4,261.7L406.9,264.1L406.5,266.7L406.1,269.4L405.8,272.3L405.6,275.3L405.3,278.5L405.2,281.9L405.1,285.4L405.1,292.6L405.2,295.9L405.3,299.1L405.5,302.1L405.7,305L406,307.7L406.3,310.2L406.7,312.6L407.2,314.9L407.7,317L408.2,318.9L408.8,320.8L409.5,322.5L410.2,324.1L410.9,325.6L411.7,326.9L412.6,328.2L413.5,329.4L414.5,330.4L416.5,332.2L418.9,333.6L420.1,334.1L422.7,335.1L424.1,335.4L425.6,335.7L427.1,335.9L428.6,336L430.2,336.1L433.6,336.1L435,336L436.3,335.9L437.5,335.8L438.5,335.6L439.3,335.5L440.1,335.3L440.7,335.1L440.7,295.3L431.1,295.3L430.5,295.2L429.5,295L428.9,294.8L428.4,294.7L427.4,294.3L426.6,293.9L426.1,293.6L425.8,293.3L425.4,293.1L425,292.8L424.7,292.4L424.3,292.1L424,291.7L423.8,291.4L423.5,291L423.3,290.6L423,290.1L422.9,289.7L422.5,288.7L422.4,288.3L422.3,287.7L422.2,287.2L422.2,286.6L422.1,286.1L422.1,284.9L422.2,284.3L422.2,283.7L422.3,283.2L422.4,282.6L422.6,281.6L423.2,280.1L423.6,279.3L424.2,278.5L424.5,278.2L424.8,277.8L425.1,277.5L425.5,277.2L425.9,277L426.3,276.7L426.8,276.5L427.2,276.2L427.7,276.1L428.7,275.7L429.3,275.6L429.8,275.5L431.6,275.2L457,275.2L457.7,275.3L459.5,275.6L460,275.7L461.5,276.3L461.9,276.5L462.3,276.8L462.7,277L463.7,278L464.3,278.8L464.5,279.2L464.7,279.7L465,280.1L465.2,280.6L465.3,281.2L465.5,281.8L465.6,282.3L465.7,282.9L465.8,283.6L465.8,284.2L466,285.6L466,327.9L465.8,331.5L465.7,333.2L465.4,334.9L465.1,336.5L464.7,338L464.2,339.5L463.7,340.9L463.1,342.2L462.4,343.5L461.7,344.7L460.9,345.8L460,347L459,348L458,348.9L456.9,349.9L455.7,350.7L454.4,351.5L453.1,352.2L451.7,352.9L450.2,353.5L448.6,354.1L447,354.6L445.3,355.1L443.5,355.5L439.7,356.1L437.7,356.4L435.6,356.5L433.4,356.7Z" style="fill-rule:nonzero;"/>
    </g>
</svg>
