<?xml version="1.0" encoding="UTF-8" standalone="no"?>
<!DOCTYPE svg PUBLIC "-//W3C//DTD SVG 1.1//EN" "http://www.w3.org/Graphics/SVG/1.1/DTD/svg11.dtd">
<svg width="100%" height="100%" viewBox="0 0 200 200" version="1.1" xmlns="http://www.w3.org/2000/svg" xmlns:xlink="http://www.w3.org/1999/xlink" xml:space="preserve" xmlns:serif="http://www.serif.com/" style="fill-rule:evenodd;clip-rule:evenodd;stroke-linejoin:round;stroke-miterlimit:2;">
    <g id="AVV" transform="matrix(0.404193,0,0,0.404193,28.6274,75.2157)">
        <path id="path11818" d="M63.223,6.672L3.396,115.932L38.572,115.932L76.947,45.779L101.597,115.932L136.774,115.932L98.333,6.672L63.223,6.672Z" style="fill:rgb(0,112,174);fill-rule:nonzero;"/>
        <path id="path11830" d="M117.72,6.672L156.094,115.932L191.27,115.932L251.097,6.672L215.921,6.672L177.546,76.825L152.829,6.672L117.719,6.672L117.72,6.672Z" style="fill:rgb(80,190,222);fill-rule:nonzero;"/>
        <path id="path11842" d="M314.589,6.672L276.147,76.825L258.892,27.658L237.507,66.765L254.762,115.932L289.938,115.932L349.765,6.672L314.589,6.672Z" style="fill:rgb(194,206,0);fill-rule:nonzero;"/>
        <path id="path11822" d="M98.363,6.681L63.21,6.681L63.21,6.683L76.959,45.788L98.363,6.683L98.363,6.681Z" style="fill:rgb(0,83,134);fill-rule:nonzero;"/>
        <path id="path11834" d="M156.121,115.964L191.271,115.964L177.525,76.857L156.121,115.964Z" style="fill:rgb(0,154,213);fill-rule:nonzero;"/>
        <path id="path11846" d="M254.766,115.964L289.919,115.964L276.171,76.857L254.766,115.964Z" style="fill:rgb(144,185,18);fill-rule:nonzero;"/>
    </g>
</svg>
