<?xml version="1.0" encoding="UTF-8"?>
<!--Generator: Apple Native CoreSVG 232.5-->
<!DOCTYPE svg
PUBLIC "-//W3C//DTD SVG 1.1//EN"
       "http://www.w3.org/Graphics/SVG/1.1/DTD/svg11.dtd">
<svg version="1.1" xmlns="http://www.w3.org/2000/svg" xmlns:xlink="http://www.w3.org/1999/xlink" width="110.654" height="60.8496">
 <g>
  <rect height="60.8496" opacity="0" width="110.654" x="0" y="0"/>
  <path d="M34.1868 38.485C29.3171 42.7148 26.5723 48.1191 26.5723 52.9688C26.5723 54.3934 26.9233 55.7225 27.5956 56.8652L5.15625 56.8652C1.43555 56.8652 0 55.4004 0 52.7637C0 44.6484 8.26172 34.8926 21.4746 34.8926C26.486 34.8926 30.7852 36.296 34.1868 38.485ZM31.6699 19.1309C31.6699 25.4883 26.9531 30.4102 21.4746 30.4102C16.0254 30.4102 11.2793 25.4883 11.2793 19.1895C11.2793 12.9492 16.0547 8.17383 21.4746 8.17383C26.9238 8.17383 31.6699 12.832 31.6699 19.1309Z" fill="#000000" fill-opacity="0.425"/>
  <path d="M110.42 52.7637C110.42 55.4004 108.984 56.8652 105.264 56.8652L82.8598 56.8652C83.529 55.7225 83.877 54.3934 83.877 52.9688C83.877 48.1156 81.1353 42.7069 76.2631 38.4755C79.6621 36.2921 83.959 34.8926 88.9746 34.8926C102.188 34.8926 110.42 44.6484 110.42 52.7637ZM99.1699 19.1309C99.1699 25.4883 94.4531 30.4102 88.9746 30.4102C83.5254 30.4102 78.75 25.4883 78.75 19.1895C78.75 12.9492 83.5254 8.17383 88.9746 8.17383C94.4238 8.17383 99.1699 12.832 99.1699 19.1309Z" fill="#000000" fill-opacity="0.425"/>
  <path d="M55.2539 29.7363C61.5234 29.7363 66.9727 24.1113 66.9727 16.7871C66.9727 9.55078 61.5234 4.18945 55.2539 4.18945C48.9844 4.18945 43.5352 9.66797 43.5352 16.8457C43.5352 24.1113 48.9551 29.7363 55.2539 29.7363ZM35.5664 56.8652L74.8828 56.8652C78.0176 56.8652 79.8926 55.4004 79.8926 52.9688C79.8926 45.4102 70.4297 34.9805 55.2246 34.9805C40.0488 34.9805 30.5859 45.4102 30.5859 52.9688C30.5859 55.4004 32.4609 56.8652 35.5664 56.8652Z" fill="#000000" fill-opacity="0.85"/>
 </g>
</svg>
