<?xml version="1.0" encoding="UTF-8"?>
<!--Generator: Apple Native CoreSVG 232.5-->
<!DOCTYPE svg
PUBLIC "-//W3C//DTD SVG 1.1//EN"
       "http://www.w3.org/Graphics/SVG/1.1/DTD/svg11.dtd">
<svg version="1.1" xmlns="http://www.w3.org/2000/svg" xmlns:xlink="http://www.w3.org/1999/xlink" width="60" height="59.7949">
 <g>
  <rect height="59.7949" opacity="0" width="60" x="0" y="0"/>
  <path d="M29.8828 59.7656C46.2305 59.7656 59.7656 46.2012 59.7656 29.8828C59.7656 13.5352 46.2012 0 29.8535 0C13.5352 0 0 13.5352 0 29.8828C0 46.2012 13.5645 59.7656 29.8828 59.7656ZM29.8828 54.7852C16.0547 54.7852 5.00977 43.7109 5.00977 29.8828C5.00977 16.0547 16.0254 4.98047 29.8535 4.98047C43.6816 4.98047 54.7852 16.0547 54.7852 29.8828C54.7852 43.7109 43.7109 54.7852 29.8828 54.7852ZM49.9219 49.1895L49.834 48.8672C48.3984 44.5605 40.6641 39.8438 29.8828 39.8438C19.1309 39.8438 11.3965 44.5605 9.93164 48.8379L9.84375 49.1895C15.1172 54.4043 24.1699 57.4512 29.8828 57.4512C35.625 57.4512 44.5898 54.4336 49.9219 49.1895ZM29.8828 34.8633C35.5371 34.9219 39.9316 30.1172 39.9316 23.8184C39.9316 17.9004 35.5078 13.0078 29.8828 13.0078C24.2578 13.0078 19.8047 17.9004 19.834 23.8184C19.8633 30.1172 24.2578 34.8047 29.8828 34.8633Z" fill="#000000" fill-opacity="0.85"/>
 </g>
</svg>
